# xmcd
#
# Track frame offsets:
#  150
#  15941
#  35387
#  45514
#  56393
#  68370
#  90253
#  107603
#  127112
#  143737
#  158922
#  178450
#
# Disc length: 2703 seconds
#
# Revision: 0
# Processed by: cddbd v1.5.1PL2 Copyright (c) Steve Scherf et al.
# Submitted via: Collectorz.com_Music_Collector 6.9
#
DISCID=8f0a8d0c
DTITLE=Cookin' Jazz and Bluesförening - Borås Blues Collection 2004
DYEAR=2004
DGENRE=General Blues
TTITLE0=Hill Blues Unit - I Wonder
TTITLE1=Hill Blues Unit - Roll Em' Pete
TTITLE2=Interstate 40 Blues Band - 5 Months 2 Weeks 2 Days
TTITLE3=Interstate 40 Blues Band - At My Front Door
TTITLE4=Low Down Band - Going Down Slow
TTITLE5=Low Down Band - Temptation Is A Gun
TTITLE6=Tunnan Blues Band - Tell Me Mama
TTITLE7=Undercover Of The Blues - Politician
TTITLE8=Purple Rain - Man Sqeeze
TTITLE9=The Hometown Mojos - Sit Down In The Park
TTITLE10=Blue Rockets - Blue Eyes
TTITLE11=Blue Rockets - Hodoo Hodoo
EXTD=
EXTT0=
EXTT1=
EXTT2=
EXTT3=
EXTT4=
EXTT5=
EXTT6=
EXTT7=
EXTT8=
EXTT9=
EXTT10=
EXTT11=
PLAYORDER=
